<?xml version="1.0" encoding="UTF-8"?>
<svg id="Layer_1" data-name="Layer 1" xmlns="http://www.w3.org/2000/svg" viewBox="0 0 1114.84 346.13">
  <g>
    <path d="M177.21,57.53l-1.31,16.46c-12.78.02-24.66,6.32-33.82,14.74-1.65,1.52-12.3,13.01-11.82,14.09.24.55,1.05,1.05,1.75,1.07,3.38.08,8.89-1.35,12.58-1.68,22.78-2,41.52-3,63.39,4.88,133.36,48.05,92.42,247.99-52.82,238.71-89.37-5.71-141.78-112.9-95.65-187.24,13.06-21.05,24.12-27.43,44.08-40.44,13.18-8.59,11.31-12.97,17.77-25.34,10.29-19.7,33.1-34.74,55.85-35.27ZM208.89,152.41c-7.02-16.66-20.94-36.88-41.67-35.23l-.61,1.84,1.27,33.39h41.01ZM254.26,152.41c-3.3-7.93-11.24-13.68-18.09-18.6-4.75-3.41-23.23-15.45-28.21-15.13l-.98.47-1.11,3.2c2.86,1.59,5.63,5.43,7.52,8.2,4.81,7.05,7.73,15.74,13.84,21.87h27.03ZM137.44,143.23l-21.14-.93c-3.35,2.01-1.38,17.84-1.23,21.74l21.75.61.63-21.43ZM221.94,216.07c.92-13-1.65-25.65-5.15-38.08-1.07-3.79-2.05-8.12-3.86-11.5h-46.29c-4.5,6.42.04,13.8.05,20.5.01,7.62-1.57,16.71-.67,24.48.12,1.06,1.06,4.59,2.17,4.59h53.75ZM266.06,166.49h-36.66l9.94,49.58h39.77c1.31-17.75-5.32-34.05-13.05-49.58ZM103.26,177.5h-29.21l-.62,28.16c9.95.95,20.13-2.01,29.83.61v-28.77ZM144.89,239.32v-33.36c0-.77-2.38-2.04-3.39-2.17-5.27-.7-23.98-.68-29.27,0-2.1.27-3.15,1.33-3.42,3.37-.93,6.96.23,17.1.06,24.54-.06,2.39-2.27,6.9,1.55,7.61l31.1-.04,1.19,1.28,2.18-1.22ZM221.94,228.92h-50.64c-.39,0-6.69,2.69-6.53,3.97l.96,31.55c-3.64,3.18-10.88-.21-13.72.22-.16.02-2.77,1.43-2.77,1.59v27.24c4.19,4.61,10.31,2.03,15.53.92v32.13c0,4.85,12.6,1.54,15.34.42,12.07-4.97,24.92-19.24,27.54-31.94h-27.96c1.28-4.21-1.31-12.33,3.37-14.12,4.17-1.6,9.04,0,13.07.07s19.1.79,21.13-1.89c1.67-2.2,3.68-20.23,4.06-24.16.32-3.38,1.96-25.17.62-26.01ZM279.11,230.14h-37.59c-.33,0-3.96,1.86-4.05,2.27,0,11.25-4.4,22.15-6.02,33.11-.48,3.27-2.42,14.16,1.49,15.31l31.78.02c3.19-7.1,7.25-13.81,9.88-21.17,1.3-3.63,4.51-13.6,4.51-16.98v-12.55ZM88.96,235.65h-21.75l-1.86,23.26h23.61v-23.26ZM123.76,295.64v-27.85c0-.4-2-1.98-2.81-2.13-1.98-.37-21.55-.19-22.66.3-1.23.55-2.96,2.83-3.15,4.24-.33,2.41-.19,23.06.35,24.2.14.29,1.13,1.23,1.23,1.23h27.03ZM251.05,295.13l-27.18-.04c.34,5.19-17.96,29.94-15.59,32.38,17.92-3.31,30.71-16.9,43.55-28.45,1.13-1.17-.4-2.56-.78-3.89ZM128.11,311.24v14.69c0,.2-.85.88-.62,1.53l18.63,1.22,1.88-18.65-18.34.3-1.55.92Z"/>
    <path d="M110.08,99.16c-1.61,1.21-3.78-6.8-4.23-7.76-11.73-25.06-33.99-46.83-59.54-58.26-3.41-1.52-10.05-5.67-12.64-2.23l27.04,24.77c7.65,7.46,32.67,32.97,35.43,41.61.2.63.41,1.18.28,1.86-4.86.1-9.76-.11-14.63-.02-12.36.22-19.08.46-30.54-5.37C19.91,77.82-1.68,34.14.1,0c38.5,3.3,97.19,14.08,109.19,56.79,3.68,13.09,3.89,29.21.79,42.36Z"/>
  </g>
  <g>
    <path d="M568.48,144.35v8.5c17.06-14.56,49.97-14.15,59.79,8.51.52,1.2,3.61,9.58,3.61,10.12v60.45h-31.37v-53.92c0-2.33-4.31-5.21-6.3-6.11-6.25-2.83-10.74-3.2-16.26,1.19-1.94,1.55-8.15,8.67-8.15,10.8v48.03h-29.41v-87.57h28.1Z"/>
    <path d="M1069.75,196.63h-61.43c5.69,17.47,27.87,14.89,40.1,5.95l15.4,16.51c-5.29,5.78-12.78,10.24-20.36,12.36-26.89,7.52-62.56-5.1-66.44-35.88-8.96-71.19,105.45-69.11,92.72,1.06ZM1041.65,179.64c-4.62-19.42-29.53-18.29-34.64,0h34.64Z"/>
    <path d="M911.26,144.35l15.67,22.26c2.38.29,1.35-1.03,2.26-2.34,4.49-6.52,9.1-12.88,12.78-19.92h32.35l-30.55,42.81,31.86,44.76h-34.96l-13.72-21.55-16.34,21.55h-33.66l31.95-42.25-30.64-45.32h33Z"/>
    <rect x="490.05" y="144.35" width="30.06" height="87.57"/>
    <rect x="837.09" y="144.35" width="30.06" height="87.57"/>
    <g>
      <path d="M339.74,119.52l27.32.14,38.37,62.61,36.59-62.74h26.47l1.31,112.41h-29.41v-56.2l-2.51.11-24.29,42.04c-2.99,3.43-15.59,3.09-18.58.29-6.73-9.72-11.47-20.65-17.74-30.62-1.17-1.87-5.37-8.85-6.5-9.84-.83-.72-1.13-.84-2.27-.67v54.9h-28.76v-112.41Z"/>
      <path d="M787.09,119.52c21.23,2.25,37.43,24.84,35.64,45.44-1.43,16.51-19.56,37.55-36.95,37.55h-32.35v29.41h-30.72v-112.41h64.37ZM753.43,178.33h18.63c2.73,0,10.1-2.84,12.42-4.58,8.87-6.63,7.39-21.76-2.36-27.04-1.58-.86-7.92-3.02-9.4-3.02h-19.28v34.64Z"/>
      <path d="M684.81,125.4v22.22h18.95v22.22h-18.95v35.62c4.89,3.88,11.59,3.75,16.99.98l7.6,20.87-.37,1c-13.85,8.1-40.15,6.97-49.98-6.89-.78-1.09-5.6-10.76-5.6-11.4v-40.19h-13.07v-22.22h13.07v-22.22h31.37Z"/>
      <rect x="1085.43" y="112.33" width="29.41" height="119.6"/>
      <path d="M499.7,102.04c13.28-1.82,26.21,4.2,23.39,19.47-3.31,17.9-34.72,18.54-36.88-1.08-.96-8.72,4.54-17.16,13.49-18.39Z"/>
      <path d="M848.04,102.04c2.28-.31,5.32-.37,7.6-.1,20.33,2.37,19.29,30.8-.56,32.63-27.12,2.51-29.06-29.52-7.05-32.54Z"/>
    </g>
  </g>
  <g>
    <path d="M492.98,326.92h-11.76c-.97-.94-5.88-1.43-5.88-2.94v-62.41h29.08c1.05,0,8.86,5.71,10.14,6.85,18.45,16.59,14.28,44.27-8.05,54.7l-13.52,3.8ZM484.49,319.08h9.48c6.98,0,17.57-6.95,20.94-13.05,11.97-21.71-8.3-41.48-30.41-38.58v51.63Z"/>
    <path d="M774.01,326.92c-25.37-3.23-34.88-36.68-18.97-55.24,9.13-10.64,25.25-15.28,38.57-10.43,3.43,1.25,15.17,8.28,12.13,12.76-3.19,4.71-11.25-4.31-14.07-5.59-28.3-12.91-50.16,27.97-27.47,46.42,12.63,10.27,38.01,5.62,36.5-13.63l-.87-1.08h-14.05v-7.84h24.18c1.39,16.03-8.76,32.51-25.49,34.64-2.31.29-8.15.29-10.46,0Z"/>
    <path d="M652.45,326.92h-10.46c-9.07-2.28-11.65-10.09-13.72-18.29l7.78.06c1.83,18.16,28.73,12.86,24.62-4.69-2.54-10.82-24.12-10.97-28.39-21.28-6.16-14.87,9.1-25.93,22.81-22.16,3.25.9,12.24,7.01,9.49,10.85-2.24,3.14-9.13-3.55-11.99-4.43-8.55-2.63-15.33,2.29-12.91,11.6,1.7,6.53,17.14,10.21,22.58,14.67,13.22,10.81,5.01,29.75-9.82,33.67Z"/>
    <path d="M953.08,326.92c-7.19-2.2-16.47-9.16-14.44-17.38l6.59-2.23c1.23,18.85,27.98,16.57,24.68-2.78-1.85-10.84-26.22-12.09-28.97-23.96-4.89-21.12,27.5-29.73,33.71-9.86-5.73,2.63-9.53-3.9-14.77-4.51-7.8-.92-11.51,3.15-10.72,10.73,1.18,11.21,22.6,10.75,27.28,21.73,5.06,11.9-1.99,25-14.21,28.26h-9.15Z"/>
    <path d="M894.91,305.36v-43.79h7.19v64.7l-41.14-42.84-7.23-2.25v42.81l-7.84,2.29v-66.01c1.14-.28,1.31.47,1.97.98,3.51,2.69,6.1,6.7,9.13,9.82,9.63,9.95,19.61,19.63,29.44,29.37,2.76,2.74,3.37,5.03,8.48,4.92Z"/>
    <path d="M594.94,261.57v5.88h-23.85c-5.08,5.93-1.75,13.3-2.29,20.26h26.14l-1.96,7.84h-24.18v21.24c0,.16,2.13,2.29,2.29,2.29h23.85v7.19h-33.98v-64.7h33.98Z"/>
    <path d="M711.27,261.57v64.7c-1.73.45-7.84-.1-7.84-2.29v-62.41h7.84Z"/>
  </g>
</svg>