<svg xmlns="http://www.w3.org/2000/svg" width="128" height="33" fill="none"><path fill="#fff" d="m12 6.5-12 7 12 7 10-5.833V22h2v-8.5l-12-7ZM3.999 17.99v4.51a9.985 9.985 0 0 0 8 4 9.985 9.985 0 0 0 8.001-4v-4.509l-8 4.667-8-4.668ZM33.68 26V8.72h11.16v2.712h-8.268v4.26H43.4v2.712h-6.828v4.884h8.268V26H33.68Zm19.235.36c-1.192 0-2.232-.3-3.12-.9-.888-.6-1.576-1.416-2.064-2.448S47 20.816 47 19.52c0-1.312.244-2.48.732-3.504.496-1.032 1.196-1.844 2.1-2.436.904-.6 1.968-.9 3.192-.9 1.232 0 2.264.3 3.096.9.84.592 1.476 1.404 1.908 2.436.432 1.032.648 2.2.648 3.504 0 1.288-.216 2.452-.648 3.492-.432 1.032-1.076 1.848-1.932 2.448-.856.6-1.916.9-3.18.9Zm.444-2.592c.776 0 1.4-.176 1.872-.528.48-.36.828-.86 1.044-1.5.224-.64.336-1.38.336-2.22 0-.848-.112-1.588-.336-2.22-.216-.64-.556-1.136-1.02-1.488-.464-.36-1.064-.54-1.8-.54-.776 0-1.416.192-1.92.576-.504.376-.876.888-1.116 1.536-.24.64-.36 1.352-.36 2.136 0 .792.116 1.512.348 2.16.24.64.604 1.148 1.092 1.524.488.376 1.108.564 1.86.564ZM56.611 26v-9.096h-.36V8.72h2.916V26h-2.556Zm10.78.372c-.96 0-1.751-.16-2.375-.48-.624-.32-1.12-.728-1.488-1.224a5.328 5.328 0 0 1-.816-1.584 8.478 8.478 0 0 1-.348-1.584 13.49 13.49 0 0 1-.072-1.224V13.04h2.928v6.24c0 .4.028.852.084 1.356.056.496.184.976.384 1.44.208.456.512.832.912 1.128.408.296.956.444 1.644.444.368 0 .732-.06 1.092-.18.36-.12.684-.324.972-.612.296-.296.532-.7.708-1.212.176-.512.264-1.16.264-1.944l1.716.732c0 1.104-.216 2.104-.648 3a5.103 5.103 0 0 1-1.884 2.148c-.832.528-1.856.792-3.072.792ZM71.629 26v-4.02h-.348v-8.94h2.904V26h-2.556Zm11.555.36c-1.336 0-2.476-.296-3.42-.888a5.912 5.912 0 0 1-2.172-2.448c-.496-1.032-.748-2.2-.756-3.504.008-1.328.268-2.504.78-3.528a5.886 5.886 0 0 1 2.208-2.424c.952-.592 2.084-.888 3.396-.888 1.472 0 2.716.372 3.732 1.116 1.024.736 1.692 1.744 2.004 3.024l-2.88.78c-.224-.696-.596-1.236-1.116-1.62a2.873 2.873 0 0 0-1.776-.588c-.752 0-1.372.18-1.86.54-.488.352-.848.84-1.08 1.464-.232.624-.348 1.332-.348 2.124 0 1.232.276 2.228.828 2.988.552.76 1.372 1.14 2.46 1.14.768 0 1.372-.176 1.812-.528.448-.352.784-.86 1.008-1.524l2.952.66c-.4 1.32-1.1 2.336-2.1 3.048-1 .704-2.224 1.056-3.672 1.056Zm13.55 0c-1.297 0-2.429-.292-3.397-.876a6.017 6.017 0 0 1-2.256-2.412c-.528-1.032-.792-2.216-.792-3.552 0-1.36.272-2.552.816-3.576a6.017 6.017 0 0 1 2.268-2.4c.968-.576 2.088-.864 3.36-.864 1.304 0 2.44.292 3.408.876a5.998 5.998 0 0 1 2.256 2.424c.536 1.024.804 2.204.804 3.54 0 1.344-.272 2.532-.816 3.564a6.017 6.017 0 0 1-2.256 2.412c-.968.576-2.1.864-3.396.864Zm0-2.712c1.151 0 2.007-.384 2.567-1.152.56-.768.84-1.76.84-2.976 0-1.256-.284-2.256-.852-3-.568-.752-1.42-1.128-2.556-1.128-.776 0-1.416.176-1.92.528-.496.344-.864.828-1.104 1.452-.24.616-.36 1.332-.36 2.148 0 1.256.284 2.26.852 3.012.576.744 1.42 1.116 2.532 1.116ZM105.843 26V13.04h2.556v3.156l-.312-.408c.16-.432.372-.824.636-1.176a3.54 3.54 0 0 1 .972-.888c.32-.216.672-.384 1.056-.504a4.749 4.749 0 0 1 1.2-.228 4.88 4.88 0 0 1 1.188.048v2.7c-.384-.112-.828-.148-1.332-.108a3.05 3.05 0 0 0-1.344.42c-.4.216-.728.492-.984.828-.248.336-.432.72-.552 1.152-.12.424-.18.884-.18 1.38V26h-2.904Zm15.244.36c-1.312 0-2.464-.284-3.456-.852a6.067 6.067 0 0 1-2.328-2.364c-.552-1.008-.828-2.168-.828-3.48 0-1.416.272-2.644.816-3.684.544-1.048 1.3-1.86 2.268-2.436.968-.576 2.088-.864 3.36-.864 1.344 0 2.484.316 3.42.948.944.624 1.644 1.508 2.1 2.652.456 1.144.628 2.492.516 4.044h-2.868v-1.056c-.008-1.408-.256-2.436-.744-3.084-.488-.648-1.256-.972-2.304-.972-1.184 0-2.064.368-2.64 1.104-.576.728-.864 1.796-.864 3.204 0 1.312.288 2.328.864 3.048.576.72 1.416 1.08 2.52 1.08.712 0 1.324-.156 1.836-.468.52-.32.92-.78 1.2-1.38l2.856.864c-.496 1.168-1.264 2.076-2.304 2.724a6.303 6.303 0 0 1-3.42.972Zm-4.464-6.036V18.14h8.916v2.184h-8.916Z"/></svg>